HIERARCHY
ROOT HipCenter
{
    OFFSET 0.0 0.0 -0.0
    CHANNELS 6 Xposition Yposition Zposition Zrotation Xrotation Yrotation
    JOINT Spine
    {
        OFFSET 0.0 11.586409568786621 0.0
        CHANNELS 3 Zrotation Xrotation Yrotation
        JOINT ShoulderCenter
        {
            OFFSET 0.0 32.490726470947266 0.0
            CHANNELS 3 Zrotation Xrotation Yrotation
            JOINT LeftShoulder
            {
                OFFSET 21.936573028564453 0.0 0.0
                CHANNELS 3 Zrotation Xrotation Yrotation
                JOINT LeftElbow
                {
                    OFFSET 28.045602798461914 0.0 0.0
                    CHANNELS 3 Zrotation Xrotation Yrotation
                    JOINT LeftWrist
                    {
                        OFFSET 28.39161491394043 0.0 0.0
                        CHANNELS 3 Zrotation Xrotation Yrotation
                        JOINT LeftHand
                        {
                            OFFSET 3.5577712059020996 0.0 0.0
                            CHANNELS 3 Zrotation Xrotation Yrotation
                            End Site
                            {
                                OFFSET 1.4231085777282715 0.0 0.0
                            }
                        }
                    }
                }
            }
            JOINT RightShoulder
            {
                OFFSET -21.936573028564453 0.0 0.0
                CHANNELS 3 Zrotation Xrotation Yrotation
                JOINT RightElbow
                {
                    OFFSET -28.045602798461914 0.0 0.0
                    CHANNELS 3 Zrotation Xrotation Yrotation
                    JOINT RightWrist
                    {
                        OFFSET -28.39161491394043 0.0 0.0
                        CHANNELS 3 Zrotation Xrotation Yrotation
                        JOINT RightHand
                        {
                            OFFSET -3.5577712059020996 0.0 0.0
                            CHANNELS 3 Zrotation Xrotation Yrotation
                            End Site
                            {
                                OFFSET -1.4231085777282715 0.0 0.0
                            }
                        }
                    }
                }
            }
            End Site
            {
                OFFSET 0.0 12.996288299560547 0.0
            }
        }
    }
    JOINT LeftHip
    {
        OFFSET 13.320082664489746 0.0 0.0
        CHANNELS 3 Zrotation Xrotation Yrotation
        JOINT LeftKnee
        {
            OFFSET 0.0 -38.6229362487793 0.0
            CHANNELS 3 Zrotation Xrotation Yrotation
            JOINT LeftAnkle
            {
                OFFSET 0.0 -39.45588684082031 0.0
                CHANNELS 3 Zrotation Xrotation Yrotation
                JOINT LeftFoot
                {
                    OFFSET 0.0 -11.922098159790039 0.0
                    CHANNELS 3 Zrotation Xrotation Yrotation
                    End Site
                    {
                        OFFSET 0.0 0.0 4.768839359283447
                    }
                }
            }
        }
    }
    JOINT RightHip
    {
        OFFSET -13.320082664489746 0.0 0.0
        CHANNELS 3 Zrotation Xrotation Yrotation
        JOINT RightKnee
        {
            OFFSET 0.0 -38.6229362487793 0.0
            CHANNELS 3 Zrotation Xrotation Yrotation
            JOINT RightAnkle
            {
                OFFSET 0.0 -39.45588684082031 0.0
                CHANNELS 3 Zrotation Xrotation Yrotation
                JOINT RightFoot
                {
                    OFFSET 0.0 -11.922098159790039 0.0
                    CHANNELS 3 Zrotation Xrotation Yrotation
                    End Site
                    {
                        OFFSET 0.0 0.0 4.768839359283447
                    }
                }
            }
        }
    }
}
MOTION
Frames: 5
Frame Time: 0.03333333333333333
-13.799999237060547 -25.799999237060547 -2.8000001907348633 -56.62217531641418 -28.817727112247137 108.6517399044689 -6.742029740370216 4.186734268252043 1.3662425535787823 4.853730271854894e-07 3.1030885654621335e-06 13.714207712195657 128.25450232841433 -24.319269953670055 -157.71817421889926 4.5995713549728657e-07 -5.166969995629349e-06 69.8176576581379 7.741057867188813e-06 -71.60236734924895 32.939763281372656 -6.3611093629270335e-15 -1.7655625192200634e-31 3.1805546814635168e-15 -126.32682213120616 -10.868546676844607 115.59138541773154 -1.5294538136818107e-06 1.109841653100171e-06 -52.74828627469694 -179.99999701470847 -19.56017174709617 138.67550524136618 -8.94531004161614e-16 7.951386703658791e-16 7.951386703658791e-16 160.88928864267731 -54.448711077664704 -149.38902509284773 78.0338500776283 39.19470759690745 -137.7861505482853 75.06018266861945 -48.1988799684112 121.49568507767391 -1.5902773407317582e-15 6.3611093629270335e-15 -3.1805546814635168e-15 -89.12180967548424 -50.852381010361874 161.71419094841022 -95.56372809070432 7.320640524598733 178.5083541068436 -105.66313692600606 9.922619090263838 161.40279430455567 -6.361109362927033e-15 -3.531125038440127e-31 6.361109362927033e-15
-10.40000057220459 -27.100000381469727 -3.0999999046325684 -47.38594665437455 -28.354971661416638 106.0499125232102 -1.4227519407225462 8.901463737392909 3.35307629073187 2.244418321823617e-06 -1.5679735521947765e-06 13.039254005698615 128.33032229973477 -23.309793664050854 -161.3645971028719 1.926932662219448e-06 5.014442197663227e-06 68.04640017393059 8.077349656012092e-07 -69.09612848838009 32.27679525160778 0.0 0.0 0.0 -126.8771222866915 -14.461000182822403 117.3079059758087 -4.646028341122774e-07 -6.20696257503087e-07 -55.16347269308713 179.99999932343 -20.461710107941787 139.0224176561784 -6.659286364314237e-15 7.951386703658791e-16 4.62080815577126e-32 154.04759142654632 -60.38704544932035 -160.69743390455406 77.55389615242254 35.25417697540671 -129.57103582516893 73.79808325462474 -52.61912085342348 127.39777814033206 -7.951386703658791e-16 0.0 0.0 -80.52982187556769 -55.99611814274141 -176.14720739222514 -94.99894563384048 21.150256636580558 168.4472062372476 -102.76883623567086 -0.960465026074403 -178.861141925966 0.0 -6.3611093629270335e-15 0.0
-11.5 -27.200000762939453 -4.300000190734863 -46.10881440235757 -19.118648537971723 97.95532659121389 -4.998332796653796 11.243102347508955 4.373835600091359 1.0033544837156183e-06 -3.0253054524950297e-06 15.560516177645557 125.31361738202044 -22.468999441623836 -163.46858255685788 -7.360036192878829e-06 -3.2616986789841973e-06 66.64405540017847 -1.705175821649847e-06 -66.480303160286 32.84172630789163 -6.361109362927035e-15 6.361109362927035e-15 3.531125038440127e-31 -127.6387389528285 -16.31294105787536 118.7634953086072 -3.6077384177174167e-06 -1.1756564900934533e-06 -56.41401353057918 179.99999790870353 -15.989238721540428 138.46005655278552 4.969616689786745e-16 -6.896728590703373e-33 -1.5902773407317584e-15 132.82882670624443 -58.973840401838125 -172.91025080788341 80.98077922779751 30.044833652418202 -150.49263967795184 82.38202300245786 -33.11349833371182 139.71052838626184 7.951386703658792e-15 -2.2069531490250793e-31 -3.1805546814635168e-15 -81.50082785292497 -61.07614377519804 -166.8637385530028 -93.88369512787307 24.120275253450195 168.47861771988858 -102.90163446776357 -4.639842111535504 -173.8602273776209 0.0 0.0 0.0
-11.90000057220459 -27.299999237060547 -3.4000000953674316 -45.00001281947315 -16.455759023622225 90.55616687822199 -4.685284008614878 12.127027798422223 5.286019927322431 3.850540613032467e-06 -4.319588461070522e-06 18.24825169813308 123.58488272768793 -20.982468459280554 -165.0195090349812 1.325512805683104e-06 4.926598099944774e-07 64.57283990753787 -1.7519970261040126e-07 -67.67329332611445 33.56333320339722 0.0 0.0 0.0 -125.50086530087019 -17.855609869908648 119.73597024368947 -8.737677774953183e-07 2.505905173269709e-06 -56.514335228502716 -179.99999674974882 -20.675618143046556 138.68572793210438 3.87630101803366e-15 -1.5902773407317582e-15 5.379448300748631e-32 122.15160697101932 -54.16744041255673 -177.20619455085455 83.32427621098618 22.59413394370247 -162.7594090049392 85.6828299651405 -21.756232949651636 148.47399953438295 4.770832022195275e-15 0.0 0.0 -79.90098628088279 -66.79283105665168 -159.56950020547336 -93.61467273902714 28.28960871194836 165.5295881959785 -102.45524296994503 -10.50958103604564 -166.5629368282437 0.0 0.0 -1.590277340731758e-15
-12.100000381469727 -27.299999237060547 -2.299999952316284 -45.72523039600861 -15.029446995075912 84.6850467500109 -4.098993545621682 11.713400068719503 5.720629304764048 1.8670743039076455e-06 -1.4578534423507732e-06 21.476200257004777 122.79307731347022 -20.143556278619016 -164.84386848586033 -2.0492730743419616e-06 7.698169179805784e-08 61.815014828399384 1.1384098065115337e-05 -62.82474654841152 33.57801840736043 6.361109362927035e-15 1.7655625192200634e-31 3.1805546814635176e-15 -123.702766312359 -17.963375015867115 120.40802475585102 -7.191837050179949e-07 -5.686980582105286e-06 -55.85019812645466 179.99999714166205 -19.316774434451055 136.23225157202046 -1.9878466759146976e-15 2.758691436281349e-32 -1.5902773407317582e-15 117.75787604189365 -49.80483219458256 -175.42820184677197 83.601846052239 14.970855510558506 -169.3799950932168 86.56997420193706 -15.166926533409312 156.58973904419736 2.1866313435061676e-15 -3.1805546814635168e-15 6.069121159818968e-32 -84.01643189656008 -71.887380987928 -161.44118948015293 -93.42108946200958 30.247050758190397 160.97071323102136 -102.3722830888704 -15.8059648666615 -162.93565360248598 6.3611093629270335e-15 -3.975693351829398e-16 -3.1805546814635168e-15
